<svg width="24" height="25" viewBox="0 0 24 25" fill="none" xmlns="http://www.w3.org/2000/svg">
<g clip-path="url(#clip0_1023_6133)">
<path d="M15.402 21.5V14.534H17.735L18.084 11.826H15.402V10.098C15.402 9.314 15.62 8.779 16.744 8.779H18.178V6.357C17.4838 6.28334 16.7861 6.24762 16.088 6.25C14.021 6.25 12.606 7.512 12.606 9.83V11.826H10.268V14.534H12.606V21.5H4C3.73478 21.5 3.48043 21.3946 3.29289 21.2071C3.10536 21.0196 3 20.7652 3 20.5V4.5C3 4.23478 3.10536 3.98043 3.29289 3.79289C3.48043 3.60536 3.73478 3.5 4 3.5H20C20.2652 3.5 20.5196 3.60536 20.7071 3.79289C20.8946 3.98043 21 4.23478 21 4.5V20.5C21 20.7652 20.8946 21.0196 20.7071 21.2071C20.5196 21.3946 20.2652 21.5 20 21.5H15.402V21.5Z" fill="#7875FC"/>
</g>
<defs>
<clipPath id="clip0_1023_6133">
<rect width="24" height="24" fill="white" transform="translate(0 0.5)"/>
</clipPath>
</defs>
</svg>
