<svg width="24" height="24" viewBox="0 0 24 24" fill="none" xmlns="http://www.w3.org/2000/svg">
<g clip-path="url(#clip0_1104_5011)">
<path d="M11.6667 20.3333C9.31295 20.3333 9.0178 20.3233 8.0934 20.2812C7.17094 20.2391 6.54093 20.0926 5.98965 19.8783C5.41974 19.6569 4.93642 19.3605 4.45463 18.8787C3.9728 18.3969 3.67645 17.9135 3.45499 17.3436C3.24073 16.7924 3.09425 16.1624 3.05212 15.2399C3.00996 14.3155 3 14.0204 3 11.6666C3 9.31293 3.00996 9.01778 3.05212 8.09338C3.09425 7.17092 3.24073 6.54091 3.45499 5.98966C3.67647 5.41975 3.97283 4.93643 4.45463 4.45458C4.93645 3.97278 5.41974 3.67642 5.98965 3.45494C6.54093 3.24073 7.17094 3.09423 8.0934 3.05212C9.0178 3.00996 9.31295 2.99998 11.6667 2.99998C14.0204 2.99998 14.3155 3.00996 15.2399 3.05212C16.1624 3.09421 16.7924 3.24073 17.3437 3.45494C17.9136 3.67642 18.3969 3.97278 18.8787 4.45458C19.3605 4.93643 19.6569 5.41975 19.8784 5.98966C20.0926 6.54091 20.2391 7.17092 20.2812 8.09338C20.3234 9.01778 20.3333 9.31293 20.3333 11.6666C20.3333 14.0204 20.3234 14.3155 20.2812 15.2399C20.2391 16.1624 20.0926 16.7924 19.8784 17.3436C19.6569 17.9135 19.3605 18.3969 18.8787 18.8787C18.3969 19.3605 17.9136 19.6569 17.3437 19.8783C16.7924 20.0926 16.1624 20.2391 15.2399 20.2812C14.3155 20.3233 14.0204 20.3333 11.6667 20.3333ZM11.6667 18.7718C13.9808 18.7718 14.2549 18.7629 15.1687 18.7212C16.0138 18.6827 16.4726 18.5415 16.778 18.4228C17.1826 18.2656 17.4713 18.0778 17.7745 17.7745C18.0778 17.4712 18.2656 17.1825 18.4228 16.778C18.5415 16.4726 18.6827 16.0137 18.7212 15.1687C18.7629 14.2548 18.7718 13.9807 18.7718 11.6666C18.7718 9.35256 18.7629 9.07844 18.7212 8.16457C18.6827 7.31956 18.5415 6.86067 18.4228 6.55531C18.2656 6.15074 18.0778 5.86204 17.7745 5.55879C17.4713 5.25549 17.1825 5.06771 16.778 4.91047C16.4726 4.79178 16.0137 4.6506 15.1687 4.61207C14.255 4.57038 13.9809 4.56153 11.6667 4.56153C9.3524 4.56153 9.07836 4.57038 8.16459 4.6121C7.31958 4.6506 6.8607 4.79178 6.55533 4.91047C6.15076 5.06771 5.86206 5.25549 5.55882 5.55879C5.25554 5.86204 5.06773 6.15076 4.91049 6.55528C4.79181 6.86067 4.65064 7.31959 4.6121 8.16457C4.5704 9.07844 4.56155 9.35256 4.56155 11.6666C4.56155 13.9807 4.5704 14.2548 4.6121 15.1687C4.65064 16.0137 4.79181 16.4726 4.91049 16.778C5.06773 17.1826 5.25554 17.4712 5.55879 17.7745C5.86206 18.0778 6.15079 18.2656 6.55531 18.4228C6.8607 18.5415 7.31961 18.6827 8.16459 18.7212C9.07846 18.7629 9.35261 18.7718 11.6667 18.7718Z" fill="#7875FC"/>
<path d="M11.6667 8.77774C10.0711 8.77774 8.77774 10.0711 8.77774 11.6666C8.77774 13.2621 10.0711 14.5555 11.6667 14.5555C13.2621 14.5555 14.5555 13.2621 14.5555 11.6666C14.5555 10.0711 13.2621 8.77774 11.6667 8.77774ZM11.6667 16.1171C9.2087 16.1171 7.21619 14.1246 7.21619 11.6666C7.21619 9.20871 9.2087 7.21619 11.6667 7.21619C14.1246 7.21619 16.1171 9.20871 16.1171 11.6666C16.1171 14.1246 14.1246 16.1171 11.6667 16.1171ZM17.3329 16.2929C17.3329 15.7185 16.8673 15.2529 16.2929 15.2529C15.7186 15.2529 15.2529 15.7185 15.2529 16.2929C15.2529 16.8673 15.7186 17.3329 16.2929 17.3329C16.8673 17.3329 17.3329 16.8673 17.3329 16.2929Z" fill="#7875FC"/>
</g>
<defs>
<clipPath id="clip0_1104_5011">
<rect width="24" height="24" fill="white"/>
</clipPath>
</defs>
</svg>
