<svg width="813" height="169" viewBox="0 0 813 169" fill="none" xmlns="http://www.w3.org/2000/svg">
<path d="M0 164.975V3.44594H44.3666V129.438L32.5211 120.177L124.054 3.44594H171.22L40.2745 164.975H0ZM77.103 87.8716L109.84 60.7348L173.374 164.975H122.762L77.103 87.8716Z" fill="#111115"/>
<path d="M218.197 74.0878H276.993C284.172 74.0878 289.772 72.4366 293.792 69.1343C297.812 65.8319 299.822 61.2373 299.822 55.3505C299.822 49.3201 297.812 44.7255 293.792 41.5667C289.772 38.2644 284.172 36.6132 276.993 36.6132H211.951L231.98 15.2914V164.975H187.399V3.44594H283.239C295.587 3.44594 306.355 5.67145 315.545 10.1225C324.734 14.4299 331.913 20.4603 337.082 28.2137C342.251 35.8235 344.835 44.8691 344.835 55.3505C344.835 65.5448 342.251 74.5186 337.082 82.2719C331.913 90.0253 324.734 96.0557 315.545 100.363C306.355 104.671 295.587 106.824 283.239 106.824H218.197V74.0878ZM242.318 89.3792H292.5L350.435 164.975H298.746L242.318 89.3792Z" fill="#111115"/>
<path d="M370.38 3.44594H414.962V164.975H370.38V3.44594Z" fill="#111115"/>
<path d="M645.522 111.993H690.966C691.684 116.444 693.766 120.321 697.212 123.623C700.658 126.926 705.252 129.51 710.995 131.377C716.882 133.1 723.774 133.961 731.671 133.961C742.583 133.961 751.198 132.597 757.516 129.869C763.833 126.997 766.992 122.834 766.992 117.378C766.992 113.214 765.197 109.983 761.608 107.686C758.018 105.389 751.126 103.737 740.932 102.732L710.78 99.9324C688.525 97.9223 672.372 92.8969 662.321 84.8564C652.271 76.6723 647.245 65.6883 647.245 51.9045C647.245 40.7052 650.476 31.2289 656.937 23.4755C663.542 15.7221 672.731 9.90709 684.505 6.0304C696.422 2.01013 710.278 0 726.071 0C741.578 0 755.362 2.22551 767.423 6.67652C779.484 10.984 789.032 17.1579 796.067 25.1985C803.246 33.239 807.123 42.5718 807.697 53.1968H762.469C761.895 49.3201 760.028 46.0177 756.87 43.2897C753.854 40.4181 749.69 38.2644 744.378 36.8285C739.065 35.2492 732.676 34.4595 725.21 34.4595C715.159 34.4595 707.191 35.8235 701.304 38.5515C695.417 41.136 692.474 45.0127 692.474 50.1816C692.474 53.9147 694.196 56.9299 697.642 59.2272C701.232 61.5245 707.621 63.1039 716.81 63.9654L748.901 67.1959C764.264 68.6317 776.54 71.1444 785.729 74.7339C794.919 78.1799 801.595 82.9899 805.759 89.1638C809.923 95.3378 812.005 103.019 812.005 112.209C812.005 123.551 808.631 133.459 801.882 141.93C795.134 150.258 785.658 156.791 773.453 161.529C761.249 166.123 747.034 168.421 730.81 168.421C714.154 168.421 699.437 166.123 686.658 161.529C674.023 156.791 664.116 150.186 656.937 141.715C649.758 133.1 645.953 123.193 645.522 111.993Z" fill="#111115"/>
<path d="M533.778 168.421C514.682 168.421 497.883 164.903 483.381 157.867C469.023 150.832 457.824 140.997 449.783 128.361C441.886 115.726 437.938 101.009 437.938 84.2103C437.938 67.4113 441.886 52.6943 449.783 40.0591C457.824 27.424 469.023 17.5887 483.381 10.5532C497.883 3.51774 514.682 0 533.778 0C553.018 0 569.817 3.51774 584.175 10.5532C598.533 17.5887 609.733 27.424 617.773 40.0591C625.814 52.6943 629.834 67.4113 629.834 84.2103C629.834 101.009 625.814 115.726 617.773 128.361C609.733 140.997 598.533 150.832 584.175 157.867C569.817 164.903 553.018 168.421 533.778 168.421Z" fill="#111115"/>
<g filter="url(#filter0_d_657_5873)">
<mask id="mask0_657_5873" style="mask-type:alpha" maskUnits="userSpaceOnUse" x="458" y="16" width="151" height="130">
<ellipse cx="533.5" cy="81" rx="74.9597" ry="65" fill="#D9D9D9"/>
</mask>
<g mask="url(#mask0_657_5873)">
<path fill-rule="evenodd" clip-rule="evenodd" d="M515.959 27.8471C514.215 28.8368 512.313 29.8031 511.731 29.9947C504.502 32.3764 487.336 38.8074 486.756 39.3514C485.299 40.7165 481.204 49.805 477.689 59.4741C475.025 66.805 471.749 73.8041 469.005 78.0289C467.551 80.2685 467.339 81.3528 468.171 82.2965C468.672 82.8646 488.803 94.1081 490.324 94.6696C491.57 95.1292 492.555 94.5259 493.596 92.6656L494.555 90.9511L494.398 105.861C494.162 128.337 493.161 141.727 490.735 154.826C489.827 159.73 489.821 160.146 490.629 161.812C491.884 164.397 493.785 165.03 503.073 165.951C517.243 167.357 552.831 167.348 566.517 165.935C575.695 164.988 577.486 164.383 578.734 161.812C579.542 160.146 579.536 159.73 578.628 154.826C576.202 141.721 575.195 128.275 574.964 105.861L574.809 90.9511L575.764 92.6596C577.458 95.688 577.375 95.6994 585.186 91.3201C588.882 89.2471 593.982 86.438 596.518 85.0777C599.054 83.7171 601.263 82.3562 601.425 82.0532C601.96 81.0567 601.74 80.3245 600.101 77.6398C596.893 72.3872 594.399 66.9144 591.028 57.7318C587.647 48.5225 584.548 41.7352 582.771 39.6496C581.894 38.6203 581.728 38.5547 563.37 32.0201C558.713 30.3625 555.558 29.035 553.343 27.801L550.111 26L547.002 26.7651C542.862 27.7832 539.614 28.148 534.69 28.1468C529.813 28.1459 526.181 27.7395 522.308 26.7618C520.734 26.3642 519.375 26.041 519.288 26.0434C519.201 26.0455 517.703 26.8573 515.959 27.8471ZM519.734 32.6981C521.649 35.0741 525.811 37.5625 529.548 38.5661C532.222 39.2839 537.75 39.2833 540.419 38.5649C544.265 37.5296 548.055 35.0666 549.91 32.3966L550.762 31.1701L551.63 31.6815C552.652 32.2837 552.594 32.671 551.143 34.925C549.056 38.17 545.767 40.4092 541.325 41.6105C538.555 42.3596 530.808 42.3596 528.038 41.6105C523.596 40.4092 520.308 38.17 518.22 34.925C516.784 32.6939 516.719 32.2924 517.697 31.6915C518.359 31.2848 518.587 31.2592 518.828 31.5656C518.994 31.7764 519.402 32.2861 519.734 32.6981ZM532.417 32.2638C535.44 32.3797 538.587 32.3114 540.823 32.0812C542.789 31.8791 544.464 31.7806 544.546 31.862C544.806 32.1213 541.977 33.6165 540.031 34.2494C537.161 35.1819 532.542 35.1091 529.521 34.0831C527.339 33.3421 525.018 32.1879 525.018 31.8436C525.018 31.755 525.596 31.7719 526.302 31.8809C527.008 31.9897 529.759 32.162 532.417 32.2638ZM483.712 81.4757C488.244 83.9827 491.995 86.0762 492.047 86.1277C492.099 86.1792 491.722 87.0512 491.209 88.0654C490.334 89.7947 490.233 89.8875 489.604 89.5537C487.011 88.1793 473.182 80.4567 472.989 80.2757C472.646 79.9531 474.664 76.6244 475.106 76.7843C475.307 76.8575 479.18 78.9687 483.712 81.4757ZM595.619 78.3527C596.167 79.2865 596.506 80.1516 596.374 80.2757C596.182 80.4567 582.353 88.1793 579.76 89.5537C579.13 89.8875 579.03 89.7947 578.155 88.0654C577.641 87.0512 577.264 86.1804 577.317 86.1304C577.503 85.9527 594.325 76.6692 594.473 76.6623C594.556 76.6584 595.072 77.419 595.619 78.3527Z" fill="#7875FC"/>
</g>
</g>
<circle cx="536" cy="50" r="2" fill="#111115"/>
<circle cx="536" cy="59" r="2" fill="#111115"/>
<circle cx="536" cy="68" r="2" fill="#111115"/>
<defs>
<filter id="filter0_d_657_5873" x="463.685" y="26" width="142" height="130" filterUnits="userSpaceOnUse" color-interpolation-filters="sRGB">
<feFlood flood-opacity="0" result="BackgroundImageFix"/>
<feColorMatrix in="SourceAlpha" type="matrix" values="0 0 0 0 0 0 0 0 0 0 0 0 0 0 0 0 0 0 127 0" result="hardAlpha"/>
<feOffset dy="6"/>
<feGaussianBlur stdDeviation="2"/>
<feComposite in2="hardAlpha" operator="out"/>
<feColorMatrix type="matrix" values="0 0 0 0 0 0 0 0 0 0 0 0 0 0 0 0 0 0 1 0"/>
<feBlend mode="normal" in2="BackgroundImageFix" result="effect1_dropShadow_657_5873"/>
<feBlend mode="normal" in="SourceGraphic" in2="effect1_dropShadow_657_5873" result="shape"/>
</filter>
</defs>
</svg>
