<svg width="24" height="25" viewBox="0 0 24 25" fill="none" xmlns="http://www.w3.org/2000/svg">
<g clip-path="url(#clip0_1023_6130)">
<path d="M22.1621 6.15599C21.3986 6.49368 20.589 6.71546 19.7601 6.81399C20.6338 6.29142 21.2878 5.469 21.6001 4.49999C20.7801 4.98799 19.8811 5.32999 18.9441 5.51499C18.3147 4.84157 17.4804 4.39495 16.571 4.24457C15.6616 4.09419 14.728 4.24848 13.9153 4.68344C13.1026 5.1184 12.4564 5.80967 12.0772 6.64978C11.6979 7.48989 11.6068 8.43177 11.8181 9.32899C10.1552 9.24564 8.52838 8.81351 7.04334 8.06065C5.55829 7.30779 4.24818 6.25104 3.19805 4.95899C2.82634 5.59744 2.63101 6.32321 2.63205 7.06199C2.63205 8.51199 3.37005 9.79299 4.49205 10.543C3.82806 10.5221 3.17869 10.3428 2.59805 10.02V10.072C2.59825 11.0377 2.93242 11.9736 3.5439 12.721C4.15538 13.4685 5.00653 13.9815 5.95305 14.173C5.33667 14.34 4.69036 14.3646 4.06305 14.245C4.32992 15.0762 4.85006 15.8032 5.55064 16.3241C6.25123 16.845 7.09718 17.1338 7.97005 17.15C7.10253 17.8313 6.10923 18.335 5.04693 18.6322C3.98464 18.9293 2.87418 19.0142 1.77905 18.882C3.69075 20.1114 5.91615 20.7641 8.18905 20.762C15.8821 20.762 20.0891 14.389 20.0891 8.86199C20.0891 8.68199 20.0841 8.49999 20.0761 8.32199C20.8949 7.73016 21.6017 6.99701 22.1631 6.15699L22.1621 6.15599Z" fill="#7875FC"/>
</g>
<defs>
<clipPath id="clip0_1023_6130">
<rect width="24" height="24" fill="white" transform="translate(0 0.5)"/>
</clipPath>
</defs>
</svg>
